<svg width="1140" height="30" viewBox="0 0 1140 30" fill="none" xmlns="http://www.w3.org/2000/svg">
<path d="M725.479 9.70927e-07C644.089 9.70927e-07 579.734 7.43409 517.272 14.6573C455.351 21.8278 391.537 29.2091 311.229 29.2091C230.92 29.2091 166.836 21.8278 105.185 14.6573C71.926 10.8084 37.8558 6.85413 1.35199 4.05975L0 4.79789C36.2334 7.59226 70.3036 11.4938 103.292 15.3427C165.484 22.5659 230.109 30 311.499 30C392.889 30 457.244 22.5659 519.706 15.3427C581.627 8.17223 645.441 0.790862 725.75 0.790862C806.058 0.790862 870.142 8.17223 931.793 15.3427C993.985 22.5659 1058.61 30 1140 30V29.2091C1059.69 29.2091 995.607 21.8278 933.956 14.6573C871.224 7.43409 806.869 9.70927e-07 725.479 9.70927e-07Z" fill="#7587C7" fill-opacity="0.05"/>
</svg>
