<svg width="1140" height="54" viewBox="0 0 1140 54" fill="none" xmlns="http://www.w3.org/2000/svg">
<path d="M725.479 0C644.089 0 579.734 13.3814 517.272 26.3831C455.351 39.29 391.537 52.5764 311.229 52.5764C230.92 52.5764 166.836 39.29 105.185 26.3831C71.926 19.4552 37.8558 12.3374 1.35199 7.30756L0 8.6362C36.2334 13.6661 70.3036 20.6889 103.292 27.6169C165.484 40.6186 230.109 54 311.499 54C392.889 54 457.244 40.6186 519.706 27.6169C581.627 14.71 645.441 1.42355 725.75 1.42355C806.058 1.42355 870.142 14.71 931.793 27.6169C993.985 40.6186 1058.61 54 1140 54V52.5764C1059.69 52.5764 995.607 39.29 933.956 26.3831C871.224 13.3814 806.869 0 725.479 0Z" fill="#7587C7" fill-opacity="0.07"/>
</svg>
