<svg width="1140" height="108" viewBox="0 0 1140 108" fill="none" xmlns="http://www.w3.org/2000/svg">
<path d="M725.577 0.413452C644.206 0.413452 579.867 27.0737 517.419 52.9777C455.513 78.6926 391.714 105.164 311.424 105.164C231.135 105.164 167.336 78.6926 105.429 52.9777C72.1783 39.1749 38.1161 24.9939 1.62096 14.9726L0.269287 17.6197C36.4941 27.641 70.5563 41.6329 103.537 55.4357C165.714 81.3397 230.324 108 311.695 108C393.065 108 457.405 81.3397 519.852 55.4357C581.759 29.7209 645.558 3.24965 725.847 3.24965C806.137 3.24965 870.206 29.7209 931.842 55.4357C994.019 81.3397 1058.63 108 1140 108V105.164C1059.71 105.164 995.641 78.6926 934.005 52.9777C871.287 27.0737 806.948 0.413452 725.577 0.413452Z" fill="#7587C7" fill-opacity="0.02"/>
</svg>
